PathFileType	4	(X/Y/Z)	 s11c0202.trc
DataRate	CameraRate	NumFrames	NumMarkers	Units	OrigDataRate	OrigDataStartFrame	OrigNumFrames
200	200	4	48	mm	200	1	2000
Frame#	Time	racr			lacr			c7			jug			rlel			rdr			llel			ldr			s2			lic			ric			lasi			rasi			rpsi			lpsi			rgt			lgt			rth1			rth2			rth3			rth4			rlfc			rmfc			rsh1			rsh2			rsh3			rsh4			rlmal			rcal			rtoe			rmt5			lth1			lth2			lth4			lth3			llfc			lmfc			llmal			lcal			lmt5			lsh1			lsh2			lsh3			lsh4			ltoe			SBIKE			LBIKE			RBIKE			
		X1	Y1	Z1	X2	Y2	Z2	X3	Y3	Z3	X4	Y4	Z4	X5	Y5	Z5	X6	Y6	Z6	X7	Y7	Z7	X8	Y8	Z8	X9	Y9	Z9	X10	Y10	Z10	X11	Y11	Z11	X12	Y12	Z12	X13	Y13	Z13	X14	Y14	Z14	X15	Y15	Z15	X16	Y16	Z16	X17	Y17	Z17	X18	Y18	Z18	X19	Y19	Z19	X20	Y20	Z20	X21	Y21	Z21	X22	Y22	Z22	X23	Y23	Z23	X24	Y24	Z24	X25	Y25	Z25	X26	Y26	Z26	X27	Y27	Z27	X28	Y28	Z28	X29	Y29	Z29	X30	Y30	Z30	X31	Y31	Z31	X32	Y32	Z32	X33	Y33	Z33	X34	Y34	Z34	X35	Y35	Z35	X36	Y36	Z36	X37	Y37	Z37	X38	Y38	Z38	X39	Y39	Z39	X40	Y40	Z40	X41	Y41	Z41	X42	Y42	Z42	X43	Y43	Z43	X44	Y44	Z44	X45	Y45	Z45	X46	Y46	Z46	X47	Y47	Z47	X48	Y48	Z48	
1	0.0050	435.828367	1448.720112	-73.643895	434.845672	1468.748483	-396.894622	333.244651	1567.609575	-235.753557	389.831111	1400.915635	-243.149530	560.052836	1192.084050	-9.660524	773.791849	972.459443	-38.879922	545.384353	1181.388009	-471.329478	787.902285	965.030578	-443.148064	-134.350199	1179.193824	-257.887536	88.489378	1221.852543	-451.086526	77.157114	1214.745132	-53.919953	134.092046	1151.232834	-421.301569	113.177643	1154.049339	-92.298174	-100.717405	1253.086118	-203.668941	-101.094264	1244.138111	-297.849126	46.887302	1073.495111	-34.062805	19.190658	1071.323505	-465.686236	175.823175	1004.835578	-34.473977	263.824152	990.143735	-44.094893	330.325140	934.881335	-56.052667	277.328522	1022.768746	-56.889949	426.453163	877.902956	-73.009382	435.286911	859.395556	-200.736494	391.464288	718.887747	-59.830172	393.169316	631.906185	-76.484772	352.351137	554.960264	-78.747540	418.885322	629.475407	-107.170064	308.644599	428.232217	-91.840841	245.876279	412.545535	-140.743956	528.765257	362.624584	-128.868801	455.426253	340.392485	-61.932706	130.942136	968.718498	-481.988632	205.854805	927.623462	-478.396934	231.837666	952.673494	-469.352165	251.484883	850.093266	-474.645643	332.200500	742.994827	-449.741550	345.626184	735.656303	-321.642934	18.505214	453.571764	-416.260223	-53.277519	436.078194	-379.072094	112.237368	310.837273	-446.178026	239.621527	660.295259	-465.484607	199.490750	586.771438	-449.627768	124.591232	539.375444	-441.116453	224.322897	568.704592	-426.331219	208.393850	293.920661	-377.560486	-205.028759	952.958048	-262.345286	1.158530	82.564903	-460.742027	-15.285853	81.066472	-62.414161	
2	0.0100	435.684837	1448.577670	-73.934521	434.853484	1468.496464	-397.195298	333.754920	1567.397624	-235.857566	390.119259	1400.495511	-243.264659	560.208146	1192.098894	-9.590474	773.917630	972.473902	-38.470387	545.315814	1181.247669	-471.556267	787.911354	964.991411	-443.289135	-134.169317	1179.352485	-257.921944	88.694442	1221.813278	-451.196913	77.346273	1214.651477	-53.936144	134.223494	1151.063831	-421.368622	113.338256	1153.983074	-92.320311	-101.577371	1253.330496	-204.201649	-100.893090	1244.225982	-297.870304	47.002021	1073.486444	-34.074269	19.227522	1071.319527	-465.719532	175.871897	1004.769521	-34.516797	263.886976	990.045441	-44.154391	330.357530	934.686954	-56.110230	277.422302	1022.653186	-56.958546	426.443016	877.757997	-73.110580	435.216153	859.274373	-200.882150	391.468611	718.764255	-59.900098	393.171303	631.773862	-76.547689	352.342354	554.806156	-78.782206	418.870096	629.350101	-107.231251	308.659218	428.028799	-91.864056	245.913889	412.374760	-140.789607	528.752326	362.520585	-128.862995	455.445341	340.265057	-61.946682	130.992504	968.717811	-482.018601	205.919896	927.644293	-478.446483	231.909684	952.688444	-469.369470	251.544392	850.133560	-474.683003	332.292425	743.036135	-449.752747	345.714287	735.678819	-321.655778	18.521134	453.711630	-416.272459	-53.280308	436.240711	-379.061140	112.222783	310.951082	-446.181594	239.662284	660.397974	-465.494307	199.540244	586.870824	-449.636060	124.619876	539.478540	-441.119034	224.344462	568.771938	-426.358000	208.380977	294.038957	-377.547181	-205.024728	952.965346	-262.353485	1.133053	82.651010	-460.688203	-15.272737	81.101434	-62.435189	
3	0.0150	436.226127	1448.739160	-73.733474	434.879865	1468.242562	-397.476211	334.171235	1567.153967	-235.967153	390.363502	1400.182626	-243.351926	560.380721	1192.119479	-9.512162	774.036585	972.452428	-38.030891	545.280613	1181.103144	-471.757437	787.927439	964.932538	-443.405353	-134.038114	1179.442706	-257.949616	88.883840	1221.693959	-451.288513	77.501486	1214.621971	-54.005517	134.305016	1150.876485	-421.435017	113.483737	1153.863610	-92.352329	-101.346953	1253.490430	-204.244311	-100.699120	1244.306634	-297.869372	47.109759	1073.487913	-34.091895	19.269871	1071.316213	-465.761555	175.918872	1004.694409	-34.547796	263.942176	989.964741	-44.190699	330.382683	934.568213	-56.177864	277.475528	1022.553128	-56.994565	426.435424	877.625974	-73.233755	435.175365	859.104936	-200.989522	391.447146	718.660344	-59.974925	393.176057	631.618605	-76.618268	352.371033	554.622881	-78.843461	418.846004	629.220434	-107.332232	308.637046	427.888012	-91.871645	245.987130	412.123378	-140.861444	528.742720	362.409306	-128.857586	455.433317	340.150415	-61.947579	131.045210	968.718713	-482.061471	205.975796	927.648778	-478.468380	231.965338	952.695721	-469.388480	251.632125	850.143590	-474.695640	332.390822	743.080055	-449.752440	345.787909	735.743761	-321.675320	18.546236	453.841779	-416.279471	-53.284477	436.393123	-379.054329	112.237204	311.100514	-446.189356	239.715476	660.467627	-465.505069	199.590306	586.980533	-449.652984	124.657132	539.584744	-441.136687	224.363240	568.847095	-426.368816	208.383343	294.173703	-377.574227	-205.019412	952.972495	-262.332393	1.136209	82.653677	-460.700559	-15.228074	81.095755	-62.502060	
4	0.0200	436.531477	1448.677497	-73.762998	434.841303	1467.954288	-397.677107	334.533336	1566.876932	-236.006113	390.576203	1399.936903	-243.423725	560.561347	1192.171619	-9.424489	774.207091	972.469710	-37.573493	544.982325	1181.165997	-472.437623	787.697462	964.527764	-442.826799	-133.461263	1179.203534	-257.907223	89.136937	1221.598732	-451.384825	77.763303	1214.601419	-54.027136	134.421914	1150.687264	-421.511557	113.646167	1153.786271	-92.344430	-102.774216	1254.131106	-203.233538	-100.504773	1244.392903	-297.882191	47.203968	1073.496827	-34.086047	19.473001	1070.994556	-465.726769	176.024168	1004.603274	-34.646251	264.009185	989.863783	-44.236249	330.422797	934.441041	-56.266125	277.525904	1022.445110	-57.046122	426.432014	877.474320	-73.334820	435.133018	858.963708	-201.116153	391.293321	718.597058	-60.009342	393.365437	631.642329	-76.567990	352.381417	554.445589	-78.880609	418.849899	629.120808	-107.345704	308.639611	427.750855	-91.932676	246.023605	411.913717	-140.859218	528.737359	362.264098	-128.868166	455.469560	339.997026	-61.940720	131.110888	968.703576	-482.081740	206.032647	927.649787	-478.483941	232.007431	952.765604	-469.421550	251.776868	849.717435	-473.829669	332.502480	743.115972	-449.735119	345.852215	735.794766	-321.666160	18.551234	453.964937	-416.281211	-53.307137	436.492788	-379.016250	112.222008	311.201195	-446.191408	239.796315	660.574700	-465.533555	199.644567	587.075262	-449.647927	124.678514	539.707358	-441.127638	224.306673	568.230592	-425.371318	208.366960	294.306175	-377.561718	-205.282616	953.325909	-262.659330	1.147176	82.660871	-460.706919	-15.276683	81.096095	-62.424317	
